<mxfile host="app.diagrams.net" modified="2023-05-25T14:18:42.289Z" agent="Mozilla/5.0 (Windows NT 10.0; Win64; x64) AppleWebKit/537.36 (KHTML, like Gecko) Chrome/113.0.0.0 Safari/537.36" etag="rwmmv_7VxVXaNgXOjkzA" version="21.3.2" type="github">
  <diagram id="KJtHh2ATGxzoySJJGVH1" name="第 1 页">
    <mxGraphModel dx="1434" dy="788" grid="1" gridSize="10" guides="1" tooltips="1" connect="1" arrows="1" fold="1" page="1" pageScale="1" pageWidth="827" pageHeight="1169" math="1" shadow="0">
      <root>
        <mxCell id="0" />
        <mxCell id="1" parent="0" />
        <mxCell id="k7XiIwyqGEX0AiAvnqv3-23" style="edgeStyle=orthogonalEdgeStyle;rounded=0;orthogonalLoop=1;jettySize=auto;html=1;exitX=1;exitY=0.5;exitDx=0;exitDy=0;entryX=0.5;entryY=0;entryDx=0;entryDy=0;" parent="1" source="k7XiIwyqGEX0AiAvnqv3-18" target="k7XiIwyqGEX0AiAvnqv3-19" edge="1">
          <mxGeometry relative="1" as="geometry" />
        </mxCell>
        <mxCell id="k7XiIwyqGEX0AiAvnqv3-18" value="进程A" style="ellipse;whiteSpace=wrap;html=1;fillColor=#dae8fc;strokeColor=#6c8ebf;" parent="1" vertex="1">
          <mxGeometry x="120" y="660" width="120" height="80" as="geometry" />
        </mxCell>
        <mxCell id="k7XiIwyqGEX0AiAvnqv3-24" style="edgeStyle=orthogonalEdgeStyle;rounded=0;orthogonalLoop=1;jettySize=auto;html=1;exitX=0.5;exitY=1;exitDx=0;exitDy=0;entryX=0;entryY=0.5;entryDx=0;entryDy=0;" parent="1" source="k7XiIwyqGEX0AiAvnqv3-19" target="k7XiIwyqGEX0AiAvnqv3-20" edge="1">
          <mxGeometry relative="1" as="geometry" />
        </mxCell>
        <mxCell id="k7XiIwyqGEX0AiAvnqv3-19" value="" style="rounded=0;whiteSpace=wrap;html=1;fillColor=#fff2cc;strokeColor=#d6b656;" parent="1" vertex="1">
          <mxGeometry x="240" y="740" width="120" height="60" as="geometry" />
        </mxCell>
        <mxCell id="k7XiIwyqGEX0AiAvnqv3-34" style="edgeStyle=orthogonalEdgeStyle;rounded=0;orthogonalLoop=1;jettySize=auto;html=1;exitX=1;exitY=0.5;exitDx=0;exitDy=0;entryX=0;entryY=0.5;entryDx=0;entryDy=0;" parent="1" source="k7XiIwyqGEX0AiAvnqv3-20" target="k7XiIwyqGEX0AiAvnqv3-30" edge="1">
          <mxGeometry relative="1" as="geometry" />
        </mxCell>
        <mxCell id="k7XiIwyqGEX0AiAvnqv3-20" value="进程C" style="ellipse;whiteSpace=wrap;html=1;fillColor=#dae8fc;strokeColor=#6c8ebf;" parent="1" vertex="1">
          <mxGeometry x="360" y="800" width="120" height="80" as="geometry" />
        </mxCell>
        <mxCell id="k7XiIwyqGEX0AiAvnqv3-27" style="edgeStyle=orthogonalEdgeStyle;rounded=0;orthogonalLoop=1;jettySize=auto;html=1;exitX=1;exitY=0.5;exitDx=0;exitDy=0;entryX=0.5;entryY=1;entryDx=0;entryDy=0;" parent="1" source="k7XiIwyqGEX0AiAvnqv3-25" target="k7XiIwyqGEX0AiAvnqv3-26" edge="1">
          <mxGeometry relative="1" as="geometry" />
        </mxCell>
        <mxCell id="k7XiIwyqGEX0AiAvnqv3-25" value="进程B" style="ellipse;whiteSpace=wrap;html=1;fillColor=#dae8fc;strokeColor=#6c8ebf;" parent="1" vertex="1">
          <mxGeometry x="120" y="940" width="120" height="80" as="geometry" />
        </mxCell>
        <mxCell id="k7XiIwyqGEX0AiAvnqv3-28" style="edgeStyle=orthogonalEdgeStyle;rounded=0;orthogonalLoop=1;jettySize=auto;html=1;exitX=0.5;exitY=0;exitDx=0;exitDy=0;entryX=0;entryY=0.5;entryDx=0;entryDy=0;" parent="1" source="k7XiIwyqGEX0AiAvnqv3-26" target="k7XiIwyqGEX0AiAvnqv3-20" edge="1">
          <mxGeometry relative="1" as="geometry" />
        </mxCell>
        <mxCell id="k7XiIwyqGEX0AiAvnqv3-26" value="" style="rounded=0;whiteSpace=wrap;html=1;fillColor=#fff2cc;strokeColor=#d6b656;" parent="1" vertex="1">
          <mxGeometry x="240" y="880" width="120" height="60" as="geometry" />
        </mxCell>
        <mxCell id="k7XiIwyqGEX0AiAvnqv3-35" style="edgeStyle=orthogonalEdgeStyle;rounded=0;orthogonalLoop=1;jettySize=auto;html=1;exitX=1;exitY=0.5;exitDx=0;exitDy=0;entryX=0;entryY=0.5;entryDx=0;entryDy=0;" parent="1" source="k7XiIwyqGEX0AiAvnqv3-30" target="k7XiIwyqGEX0AiAvnqv3-32" edge="1">
          <mxGeometry relative="1" as="geometry" />
        </mxCell>
        <mxCell id="k7XiIwyqGEX0AiAvnqv3-30" value="" style="rounded=0;whiteSpace=wrap;html=1;fillColor=#fff2cc;strokeColor=#d6b656;" parent="1" vertex="1">
          <mxGeometry x="520" y="810" width="120" height="60" as="geometry" />
        </mxCell>
        <mxCell id="k7XiIwyqGEX0AiAvnqv3-32" value="进程D" style="ellipse;whiteSpace=wrap;html=1;fillColor=#dae8fc;strokeColor=#6c8ebf;" parent="1" vertex="1">
          <mxGeometry x="680" y="800" width="120" height="80" as="geometry" />
        </mxCell>
        <mxCell id="k7XiIwyqGEX0AiAvnqv3-33" value="&lt;b&gt;$$S_A=\{O_A:R_C,R_D\};I_A=\{O_A:W_C\}$$&lt;/b&gt;&lt;div style=&quot;text-align: left&quot;&gt;&lt;/div&gt;" style="text;html=1;align=center;verticalAlign=middle;resizable=0;points=[];autosize=1;strokeColor=none;fillColor=none;" parent="1" vertex="1">
          <mxGeometry x="300" y="710" width="270" height="20" as="geometry" />
        </mxCell>
        <mxCell id="k7XiIwyqGEX0AiAvnqv3-37" value="&lt;span&gt;$$F_A$$&lt;/span&gt;" style="text;html=1;align=center;verticalAlign=middle;resizable=0;points=[];autosize=1;strokeColor=none;fillColor=none;" parent="1" vertex="1">
          <mxGeometry x="290" y="760" width="60" height="20" as="geometry" />
        </mxCell>
        <mxCell id="k7XiIwyqGEX0AiAvnqv3-40" value="数据流" style="text;html=1;align=center;verticalAlign=middle;resizable=0;points=[];autosize=1;strokeColor=none;fillColor=none;" parent="1" vertex="1">
          <mxGeometry x="260" y="760" width="50" height="20" as="geometry" />
        </mxCell>
        <mxCell id="k7XiIwyqGEX0AiAvnqv3-43" value="&lt;span&gt;$$F_B$$&lt;/span&gt;" style="text;html=1;align=center;verticalAlign=middle;resizable=0;points=[];autosize=1;strokeColor=none;fillColor=none;" parent="1" vertex="1">
          <mxGeometry x="290" y="900" width="60" height="20" as="geometry" />
        </mxCell>
        <mxCell id="k7XiIwyqGEX0AiAvnqv3-44" value="数据流" style="text;html=1;align=center;verticalAlign=middle;resizable=0;points=[];autosize=1;strokeColor=none;fillColor=none;" parent="1" vertex="1">
          <mxGeometry x="260" y="900" width="50" height="20" as="geometry" />
        </mxCell>
        <mxCell id="k7XiIwyqGEX0AiAvnqv3-45" value="数据流" style="text;html=1;align=center;verticalAlign=middle;resizable=0;points=[];autosize=1;strokeColor=none;fillColor=none;" parent="1" vertex="1">
          <mxGeometry x="540" y="830" width="50" height="20" as="geometry" />
        </mxCell>
        <mxCell id="k7XiIwyqGEX0AiAvnqv3-46" value="&lt;span&gt;$$F_C$$&lt;/span&gt;" style="text;html=1;align=center;verticalAlign=middle;resizable=0;points=[];autosize=1;strokeColor=none;fillColor=none;" parent="1" vertex="1">
          <mxGeometry x="570" y="830" width="60" height="20" as="geometry" />
        </mxCell>
        <mxCell id="k7XiIwyqGEX0AiAvnqv3-47" value="&lt;span style=&quot;color: rgb(0 , 0 , 0) ; font-family: &amp;#34;helvetica&amp;#34; ; font-size: 12px ; font-style: normal ; font-weight: 400 ; letter-spacing: normal ; text-align: center ; text-indent: 0px ; text-transform: none ; word-spacing: 0px ; background-color: rgb(248 , 249 , 250) ; display: inline ; float: none&quot;&gt;$$S_B=\{O_B:R_G\};I_B=\{O_B:W_G\}$$&lt;/span&gt;" style="text;whiteSpace=wrap;html=1;" parent="1" vertex="1">
          <mxGeometry x="310" y="950" width="350" height="30" as="geometry" />
        </mxCell>
        <mxCell id="k7XiIwyqGEX0AiAvnqv3-48" value="$$S_C=\{O_C:R_D\}$$&lt;div style=&quot;text-align: left&quot;&gt;&lt;/div&gt;" style="text;html=1;align=center;verticalAlign=middle;resizable=0;points=[];autosize=1;strokeColor=none;fillColor=none;" parent="1" vertex="1">
          <mxGeometry x="510" y="780" width="140" height="20" as="geometry" />
        </mxCell>
      </root>
    </mxGraphModel>
  </diagram>
</mxfile>
